<?xml version="1.0" standalone="no"?>
<!DOCTYPE svg PUBLIC "-//W3C//DTD SVG 20010904//EN"
 "http://www.w3.org/TR/2001/REC-SVG-20010904/DTD/svg10.dtd">
<svg version="1.0" xmlns="http://www.w3.org/2000/svg"
 width="200.000000pt" height="200.000000pt" viewBox="0 0 200.000000 200.000000"
 preserveAspectRatio="xMidYMid meet">

<g transform="translate(0.000000,200.000000) scale(0.100000,-0.100000)"
fill="#000000" stroke="none">
<path d="M210 1792 c-47 -23 -77 -72 -85 -135 -3 -29 -5 -261 -3 -517 3 -464
3 -465 26 -502 13 -21 40 -45 66 -57 40 -20 59 -21 349 -21 345 0 325 5 288
-75 -33 -73 -65 -102 -122 -109 -34 -5 -59 -15 -74 -30 -28 -28 -42 -88 -29
-125 l9 -26 365 0 365 0 3 62 c3 56 0 66 -22 88 -16 16 -41 26 -75 31 -57 7
-89 36 -122 109 -37 80 -57 75 288 75 286 0 309 1 347 20 23 11 52 36 66 57
l25 37 0 510 c0 497 -1 512 -21 546 -11 19 -35 45 -54 57 l-33 23 -761 0
c-705 0 -764 -1 -796 -18z m1571 -71 l29 -29 0 -507 0 -506 -25 -24 -24 -25
-761 0 -761 0 -24 25 -25 24 0 506 0 507 29 29 29 29 752 0 752 0 29 -29z
m-706 -1213 c6 -26 24 -65 38 -87 l27 -41 -140 0 -140 0 24 38 c13 20 29 55
36 77 6 22 13 46 16 53 3 9 21 12 65 10 l62 -3 12 -47z m233 -230 l3 -28 -310
0 -311 0 0 23 c0 13 3 27 7 30 4 4 142 6 307 5 l301 -3 3 -27z"/>
<path d="M262 1678 c-17 -17 -17 -839 0 -856 17 -17 1459 -17 1476 0 17 17 17
839 0 856 -17 17 -1459 17 -1476 0z m1428 -428 l0 -370 -690 0 -690 0 0 370 0
370 690 0 690 0 0 -370z"/>
<path d="M944 736 c-13 -35 3 -47 58 -44 49 3 53 5 53 28 0 23 -4 25 -53 28
-40 2 -54 -1 -58 -12z"/>
</g>
</svg>
