<?xml version="1.0" standalone="no"?>
<!DOCTYPE svg PUBLIC "-//W3C//DTD SVG 20010904//EN"
 "http://www.w3.org/TR/2001/REC-SVG-20010904/DTD/svg10.dtd">
<svg version="1.0" xmlns="http://www.w3.org/2000/svg"
 width="241.000000pt" height="209.000000pt" viewBox="0 0 241.000000 209.000000"
 preserveAspectRatio="xMidYMid meet">

<g transform="translate(0.000000,209.000000) scale(0.100000,-0.100000)"
fill="#000000" stroke="none">
<path d="M576 2069 l-26 -20 0 -1004 0 -1004 26 -20 c26 -21 35 -21 629 -21
594 0 603 0 629 21 l26 20 0 1004 0 1004 -26 20 c-26 21 -35 21 -629 21 -594
0 -603 0 -629 -21z m739 -213 c93 -43 148 -128 149 -231 1 -101 -53 -188 -148
-238 -57 -30 -165 -30 -222 0 -95 50 -149 137 -148 238 1 71 19 117 65 170 47
53 119 85 194 85 42 0 75 -7 110 -24z m0 -731 c251 -66 403 -316 340 -560 -48
-182 -190 -313 -377 -346 -232 -41 -461 111 -523 348 -86 328 231 643 560 558z"/>
<path d="M1150 1808 c-157 -45 -189 -255 -53 -348 102 -70 261 -10 294 112 38
142 -100 278 -241 236z m119 -132 c6 -7 14 -27 17 -44 5 -26 1 -36 -24 -62
-39 -39 -74 -39 -113 -1 -31 32 -34 45 -19 86 19 50 105 63 139 21z"/>
<path d="M1135 1044 c-148 -36 -252 -133 -291 -268 -74 -262 162 -519 429
-466 34 6 79 21 101 32 66 34 141 112 172 181 25 53 29 75 29 152 0 80 -3 97
-32 157 -60 127 -177 206 -315 213 -40 2 -82 2 -93 -1z m144 -253 c44 -31 64
-67 64 -115 0 -158 -229 -188 -273 -35 -34 118 110 221 209 150z"/>
<path d="M92 1032 c-26 -26 -69 -164 -83 -267 -13 -100 -7 -206 16 -296 39
-150 90 -204 140 -149 21 23 20 30 -24 154 -44 125 -37 292 19 446 28 78 28
97 2 118 -22 17 -49 15 -70 -6z"/>
<path d="M2246 1037 c-24 -18 -23 -42 7 -128 55 -159 59 -314 11 -451 -14 -40
-28 -85 -31 -99 -9 -49 56 -80 89 -41 17 19 52 107 67 167 32 125 22 304 -26
446 -36 111 -69 141 -117 106z"/>
<path d="M318 933 c-49 -55 -73 -292 -44 -418 9 -38 23 -80 32 -92 20 -31 68
-31 89 0 14 22 14 28 -2 68 -25 65 -24 263 1 347 15 49 17 67 8 87 -14 30 -61
34 -84 8z"/>
<path d="M2009 926 c-9 -18 -6 -42 10 -107 25 -98 27 -211 6 -292 -25 -98 -17
-127 37 -127 36 0 53 27 74 115 29 126 5 363 -44 418 -23 26 -70 22 -83 -7z"/>
</g>
</svg>
