<?xml version="1.0" standalone="no"?>
<!DOCTYPE svg PUBLIC "-//W3C//DTD SVG 20010904//EN"
 "http://www.w3.org/TR/2001/REC-SVG-20010904/DTD/svg10.dtd">
<svg version="1.0" xmlns="http://www.w3.org/2000/svg"
 width="350.000000pt" height="144.000000pt" viewBox="0 0 350.000000 144.000000"
 preserveAspectRatio="xMidYMid meet">

<g transform="translate(0.000000,144.000000) scale(0.100000,-0.100000)"
fill="#000000" stroke="none">
<path d="M55 1426 c-17 -7 -36 -25 -43 -40 -9 -20 -12 -183 -12 -667 0 -705
-2 -686 61 -708 45 -16 3333 -16 3378 0 63 22 61 3 61 709 0 706 2 687 -61
709 -51 17 -3344 15 -3384 -3z m213 -88 c18 -18 15 -94 -4 -112 -18 -19 -94
-22 -112 -4 -13 13 -17 110 -5 121 11 12 108 8 121 -5z m280 0 c7 -7 12 -36
12 -65 0 -62 -19 -78 -83 -70 -48 7 -57 18 -57 79 0 34 5 50 18 57 24 14 95
14 110 -1z m251 -2 c7 -8 11 -37 9 -68 -3 -52 -4 -53 -41 -62 -23 -6 -48 -6
-65 0 -24 8 -27 15 -30 63 -4 67 8 81 68 81 29 0 52 -6 59 -14z m245 -2 c10
-9 16 -33 16 -59 0 -51 -24 -75 -75 -75 -51 0 -75 24 -75 75 0 56 19 75 75 75
26 0 50 -6 59 -16z m245 2 c7 -8 11 -37 9 -67 -3 -48 -6 -55 -30 -63 -17 -6
-42 -6 -65 0 -37 9 -38 10 -41 62 -4 68 8 82 68 82 29 0 52 -6 59 -14z m295
-2 c17 -17 22 -90 7 -113 -5 -7 -29 -15 -54 -18 -36 -4 -49 -1 -66 16 -25 25
-28 77 -5 109 19 27 93 31 118 6z m244 4 c7 -7 12 -36 12 -65 0 -43 -4 -54
-21 -64 -27 -14 -99 -6 -110 13 -15 22 -10 95 7 112 18 19 94 22 112 4z m251
-2 c7 -8 11 -37 9 -68 -3 -52 -4 -53 -41 -62 -23 -6 -48 -6 -65 0 -24 8 -27
15 -30 63 -4 67 8 81 68 81 29 0 52 -6 59 -14z m245 -2 c10 -9 16 -33 16 -59
0 -51 -24 -75 -75 -75 -50 0 -75 24 -75 72 0 56 22 78 76 78 25 0 49 -6 58
-16z m280 0 c25 -25 21 -99 -6 -118 -31 -22 -84 -20 -108 4 -25 25 -27 86 -3
112 21 23 95 25 117 2z m244 4 c7 -7 12 -36 12 -65 0 -62 -19 -78 -83 -70 -48
7 -57 18 -57 79 0 34 5 50 18 57 24 14 95 14 110 -1z m250 0 c7 -7 12 -36 12
-65 0 -59 -14 -73 -70 -73 -56 0 -70 14 -70 73 0 29 5 58 12 65 7 7 33 12 58
12 25 0 51 -5 58 -12z m246 -4 c10 -9 16 -33 16 -59 0 -51 -24 -75 -75 -75
-51 0 -75 24 -75 75 0 56 19 75 75 75 26 0 50 -6 59 -16z m-3076 -256 c17 -17
15 -103 -2 -117 -8 -7 -37 -11 -68 -9 l-53 3 -3 59 c-2 41 1 62 10 67 20 13
102 11 116 -3z m222 -7 c5 -11 10 -34 10 -51 0 -56 -14 -70 -73 -70 -63 0 -77
11 -77 63 0 64 13 77 75 77 43 0 56 -4 65 -19z m218 10 c9 -5 12 -26 10 -67
l-3 -59 -53 -3 c-31 -2 -60 2 -68 9 -17 14 -19 100 -2 117 14 14 96 16 116 3z
m231 -5 c7 -8 11 -37 9 -68 l-3 -53 -53 -3 c-31 -2 -60 2 -68 9 -17 14 -19
100 -2 117 17 17 103 15 117 -2z m230 0 c7 -8 11 -37 9 -68 l-3 -53 -59 -3
c-41 -2 -62 1 -67 10 -13 20 -11 102 3 116 17 17 103 15 117 -2z m229 2 c17
-17 15 -103 -2 -117 -8 -7 -37 -11 -68 -9 l-53 3 -3 53 c-2 31 2 60 9 68 14
17 100 19 117 2z m230 0 c17 -17 15 -103 -2 -117 -8 -7 -37 -11 -68 -9 l-53 3
-3 53 c-2 31 2 60 9 68 14 17 100 19 117 2z m230 0 c17 -17 15 -103 -2 -117
-8 -7 -37 -11 -68 -9 l-53 3 -3 54 c-2 29 -1 60 2 67 7 18 107 19 124 2z m232
-7 c14 -27 13 -94 -2 -109 -7 -7 -36 -12 -65 -12 -59 0 -73 14 -73 70 0 57 14
70 75 70 43 0 56 -4 65 -19z m218 11 c18 -12 26 -72 13 -104 -10 -26 -15 -28
-64 -28 -29 0 -58 5 -65 12 -7 7 -12 33 -12 58 0 25 5 51 12 58 14 14 96 16
116 4z m230 -1 c9 -5 12 -26 10 -67 l-3 -59 -53 -3 c-31 -2 -60 2 -68 9 -17
14 -19 100 -2 117 14 14 96 16 116 3z m231 -5 c7 -8 11 -37 9 -68 l-3 -53 -53
-3 c-31 -2 -60 2 -68 9 -17 14 -19 100 -2 117 17 17 103 15 117 -2z m229 2
c19 -19 16 -114 -4 -122 -20 -8 -88 -8 -108 0 -20 8 -23 103 -4 122 7 7 33 12
58 12 25 0 51 -5 58 -12z m352 -7 c14 -27 13 -94 -2 -109 -16 -16 -210 -16
-226 0 -16 16 -16 100 0 116 8 8 48 12 115 12 91 0 103 -2 113 -19z m-3050
-211 c27 -27 27 -83 0 -110 -15 -15 -33 -20 -78 -20 -32 0 -63 5 -70 12 -7 7
-12 36 -12 65 0 62 12 72 88 73 39 0 57 -5 72 -20z m234 4 c10 -10 16 -33 16
-64 0 -55 -15 -70 -70 -70 -57 0 -70 14 -70 75 0 41 4 56 18 64 26 16 89 13
106 -5z m227 6 c15 -9 19 -22 19 -65 0 -61 -13 -75 -70 -75 -57 0 -70 14 -70
75 0 41 4 56 18 64 22 14 78 14 103 1z m239 -10 c24 -24 26 -77 4 -108 -19
-27 -93 -31 -118 -6 -25 25 -21 99 6 118 31 22 84 20 108 -4z m241 -1 c15 -23
10 -96 -7 -113 -18 -18 -76 -21 -105 -6 -26 15 -28 114 -1 130 22 14 102 6
113 -11z m220 11 c15 -9 19 -22 19 -65 0 -61 -13 -75 -70 -75 -57 0 -70 14
-70 75 0 41 4 56 18 64 22 14 78 14 103 1z m237 -6 c17 -11 22 -25 22 -56 0
-56 -22 -78 -76 -78 -55 0 -74 19 -74 75 0 51 24 75 75 75 17 0 41 -7 53 -16z
m233 6 c15 -9 19 -22 19 -65 0 -43 -4 -56 -19 -65 -27 -14 -94 -13 -109 2 -20
20 -15 115 6 127 22 14 78 14 103 1z m230 0 c15 -9 19 -22 19 -65 0 -61 -13
-75 -70 -75 -57 0 -70 14 -70 75 0 41 4 56 18 64 22 14 78 14 103 1z m237 -6
c17 -12 22 -25 22 -59 0 -55 -19 -75 -72 -75 -56 0 -78 22 -78 76 0 50 25 74
75 74 17 0 41 -7 53 -16z m233 6 c15 -9 19 -22 19 -65 0 -61 -13 -75 -70 -75
-57 0 -70 14 -70 75 0 41 4 56 18 64 22 14 78 14 103 1z m230 0 c15 -9 19 -22
19 -65 0 -61 -13 -75 -70 -75 -55 0 -70 15 -70 68 0 50 6 66 30 75 25 9 70 8
91 -3z m237 -6 c17 -12 22 -25 22 -59 0 -56 -19 -75 -75 -75 -51 0 -75 24 -75
77 0 63 73 96 128 57z m240 0 c17 -12 22 -25 22 -59 0 -55 -19 -75 -72 -75
-56 0 -78 22 -78 76 0 50 25 74 75 74 17 0 41 -7 53 -16z m-2974 -210 c20 -8
23 -103 4 -122 -13 -13 -183 -17 -212 -6 -12 5 -16 20 -16 63 0 32 3 61 7 64
8 9 196 9 217 1z m244 -6 c16 -16 16 -100 0 -116 -13 -13 -85 -16 -112 -6 -12
5 -16 20 -16 63 0 32 3 61 7 64 11 12 108 8 121 -5z m240 0 c7 -7 12 -33 12
-58 0 -25 -5 -51 -12 -58 -7 -7 -36 -12 -65 -12 -48 0 -54 3 -63 26 -6 14 -10
34 -10 44 0 10 4 30 10 44 9 23 15 26 63 26 29 0 58 -5 65 -12z m240 0 c7 -7
12 -33 12 -58 0 -25 -5 -51 -12 -58 -7 -7 -36 -12 -65 -12 -60 0 -73 14 -73
77 0 51 14 63 75 63 28 0 56 -5 63 -12z m240 -52 c4 -69 -3 -76 -68 -76 -58 0
-70 12 -70 70 0 61 13 72 80 68 l55 -3 3 -59z m240 0 c4 -69 -3 -76 -68 -76
-58 0 -70 12 -70 70 0 61 13 72 80 68 l55 -3 3 -59z m226 58 c20 -8 23 -103 4
-122 -16 -16 -100 -16 -116 0 -7 7 -12 33 -12 58 0 25 5 51 12 58 13 13 85 16
112 6z m244 -6 c7 -7 12 -33 12 -58 0 -57 -12 -70 -66 -70 -69 0 -74 5 -74 69
0 32 3 61 7 64 11 12 108 8 121 -5z m240 0 c7 -7 12 -33 12 -58 0 -57 -12 -70
-66 -70 -69 0 -74 5 -74 69 0 32 3 61 7 64 11 12 108 8 121 -5z m240 0 c15
-15 16 -82 2 -109 -9 -15 -22 -19 -65 -19 -61 0 -75 13 -75 70 0 56 14 70 73
70 29 0 58 -5 65 -12z m246 -20 c6 -17 6 -42 0 -65 -9 -37 -10 -38 -62 -41
-68 -4 -82 8 -82 67 0 62 12 73 80 69 49 -3 56 -6 64 -30z m234 -32 c4 -69 -3
-76 -68 -76 -58 0 -70 12 -70 70 0 61 13 72 80 68 l55 -3 3 -59z m350 52 c7
-7 12 -33 12 -58 0 -25 -5 -51 -12 -58 -16 -16 -210 -16 -226 0 -16 16 -16
100 0 116 16 16 210 16 226 0z m-2884 -214 c20 -19 21 -97 2 -113 -9 -8 -63
-11 -167 -9 l-154 3 -3 53 c-5 81 -2 82 164 82 116 0 145 -3 158 -16z m235 2
c7 -8 11 -37 9 -68 l-3 -53 -59 -3 c-41 -2 -62 1 -67 10 -13 20 -11 102 3 116
17 17 103 15 117 -2z m245 -2 c19 -18 22 -94 4 -112 -16 -16 -110 -16 -126 0
-18 18 -15 94 4 112 21 21 97 21 118 0z m244 4 c14 -14 16 -96 3 -116 -5 -9
-26 -12 -67 -10 l-59 3 -3 53 c-2 31 2 60 9 68 14 17 100 19 117 2z m241 -2
c7 -8 11 -37 9 -68 l-3 -53 -65 0 -65 0 -3 53 c-4 68 8 82 68 82 29 0 52 -6
59 -14z m245 -2 c18 -18 21 -76 6 -105 -9 -15 -22 -19 -63 -19 -29 0 -58 5
-65 12 -18 18 -15 94 4 112 21 21 97 21 118 0z m244 4 c17 -17 15 -103 -2
-117 -8 -7 -37 -11 -68 -9 l-53 3 -3 53 c-2 31 2 60 9 68 14 17 100 19 117 2z
m241 -2 c7 -8 11 -37 9 -68 l-3 -53 -65 0 -65 0 -3 53 c-4 68 8 82 68 82 29 0
52 -6 59 -14z m239 5 c19 -11 27 -83 13 -110 -10 -17 -21 -21 -64 -21 -63 0
-77 11 -77 63 0 62 13 77 68 77 26 0 53 -4 60 -9z m250 -3 c7 -7 12 -33 12
-58 0 -25 -5 -51 -12 -58 -7 -7 -36 -12 -65 -12 -58 0 -73 14 -73 67 0 50 25
73 79 73 26 0 52 -5 59 -12z m241 -2 c7 -8 11 -37 9 -68 l-3 -53 -65 0 -65 0
-3 53 c-4 68 8 82 68 82 29 0 52 -6 59 -14z m455 -2 c19 -18 22 -94 4 -112 -8
-8 -59 -12 -165 -12 -145 0 -153 1 -164 21 -14 27 -6 99 13 110 7 5 77 9 155
9 115 0 144 -3 157 -16z m-2996 -262 c2 -31 -2 -60 -9 -68 -15 -18 -169 -20
-187 -2 -13 13 -17 110 -5 122 4 4 50 5 103 4 l95 -3 3 -53z m290 0 c2 -31 -2
-60 -9 -68 -15 -18 -169 -20 -187 -2 -13 13 -17 110 -5 122 4 4 50 5 103 4
l95 -3 3 -53z m290 0 c2 -31 -2 -60 -9 -68 -15 -18 -169 -20 -187 -2 -13 13
-17 110 -5 122 4 4 50 5 103 4 l95 -3 3 -53z m1550 0 c2 -31 -2 -60 -9 -68
-10 -12 -121 -14 -723 -14 -540 0 -715 3 -724 12 -13 13 -17 110 -5 121 3 4
333 6 732 5 l726 -3 3 -53z m286 42 c10 -27 7 -99 -6 -112 -19 -19 -173 -16
-192 4 -19 18 -22 94 -4 112 8 8 46 12 104 12 75 0 93 -3 98 -16z m290 0 c10
-27 7 -99 -6 -112 -19 -19 -173 -16 -192 4 -19 18 -22 94 -4 112 8 8 46 12
104 12 75 0 93 -3 98 -16z m294 4 c18 -18 15 -94 -4 -112 -11 -12 -36 -16 -90
-16 -99 0 -114 9 -114 65 0 74 1 75 104 75 58 0 96 -4 104 -12z"/>
</g>
</svg>
