<?xml version="1.0" standalone="no"?>
<!DOCTYPE svg PUBLIC "-//W3C//DTD SVG 20010904//EN"
 "http://www.w3.org/TR/2001/REC-SVG-20010904/DTD/svg10.dtd">
<svg version="1.0" xmlns="http://www.w3.org/2000/svg"
 width="173.000000pt" height="291.000000pt" viewBox="0 0 173.000000 291.000000"
 preserveAspectRatio="xMidYMid meet">

<g transform="translate(0.000000,291.000000) scale(0.100000,-0.100000)"
fill="#000000" stroke="none">
<path d="M878 2899 c-16 -9 -18 -26 -18 -123 l0 -113 40 -12 c70 -21 70 -20
70 -230 0 -174 -2 -190 -20 -214 -11 -14 -36 -31 -54 -38 l-33 -12 -8 -171
c-3 -94 -5 -200 -4 -236 3 -62 2 -65 -22 -68 l-24 -3 3 240 3 240 -39 10 c-68
19 -75 34 -80 180 -6 172 2 234 36 273 16 16 43 33 62 37 31 6 35 10 34 39 0
18 -1 70 -2 117 l-2 85 -51 0 c-120 0 -328 -59 -431 -122 -45 -28 -47 -31 -60
-101 -20 -112 -17 -508 5 -622 79 -397 255 -647 482 -683 273 -44 502 200 614
650 51 205 76 519 54 696 -6 53 -6 53 -65 83 -157 79 -429 134 -490 98z"/>
<path d="M1455 2433 c0 -327 0 -328 -27 -425 -85 -304 -241 -539 -416 -625
-73 -37 -80 -38 -182 -38 -97 0 -110 2 -165 30 -71 36 -183 138 -235 215 -83
122 -156 302 -184 450 -22 112 -22 469 -1 599 9 52 13 96 11 98 -9 9 -66 -102
-87 -167 -38 -124 -52 -235 -49 -390 11 -429 7 -485 -65 -900 -24 -140 -47
-279 -50 -309 l-7 -55 41 33 c90 72 123 123 206 319 28 67 55 117 67 123 17 9
32 -1 112 -79 133 -129 231 -172 386 -172 164 0 270 47 415 181 52 49 101 89
108 89 24 0 43 -31 86 -140 67 -166 116 -225 260 -315 l44 -27 -6 73 c-3 41
-24 151 -46 244 -79 334 -83 390 -70 960 3 150 1 193 -15 260 -25 109 -70 223
-103 264 l-28 33 0 -329z"/>
<path d="M774 2622 c-40 -25 -44 -47 -44 -238 l0 -153 26 -20 c53 -42 165 -14
180 43 3 14 4 95 2 180 -3 143 -5 157 -24 177 -31 30 -100 36 -140 11z"/>
<path d="M1265 1316 c-115 -120 -288 -197 -450 -199 -157 -2 -272 48 -417 182
-42 39 -72 59 -81 55 -8 -3 -36 -59 -61 -124 -53 -134 -118 -234 -199 -305
l-53 -47 8 -67 c25 -191 114 -400 219 -515 143 -156 344 -252 597 -286 178
-24 368 38 541 177 99 79 148 134 222 247 68 104 113 220 129 334 16 110 12
124 -58 163 -31 18 -87 62 -123 98 -64 65 -110 142 -178 304 -11 26 -24 47
-28 47 -4 0 -35 -29 -68 -64z m-278 -528 c76 -50 104 -169 63 -266 -82 -191
-364 -146 -387 61 -10 88 36 174 116 218 53 29 154 23 208 -13z"/>
<path d="M782 773 c-18 -9 -45 -32 -60 -51 -24 -31 -27 -44 -27 -112 0 -68 3
-80 28 -113 37 -49 80 -70 143 -70 63 0 119 29 154 80 21 31 25 48 25 109 0
81 -15 111 -75 152 -41 27 -137 30 -188 5z"/>
</g>
</svg>
